HIERARCHY
ROOT Hips
{
	OFFSET -0.179506 -22.333345 2.821913
	CHANNELS 6 Xposition Yposition Zposition Zrotation Yrotation Xrotation 
	JOINT LeftUpLeg
	{
		OFFSET 6.951974 -9.140623 -0.681533
		CHANNELS 3 Zrotation Yrotation Xrotation
		JOINT LeftLeg
		{
			OFFSET 3.427654 -37.519855 -0.449580
			CHANNELS 3 Zrotation Yrotation Xrotation
			JOINT LeftFoot
			{
				OFFSET -1.359570 -39.796059 -4.369333
				CHANNELS 3 Zrotation Yrotation Xrotation
				JOINT LeftToe
				{
					OFFSET 2.635814 -5.579078 11.928840
					CHANNELS 3 Zrotation Yrotation Xrotation
					End Site
					{
						OFFSET 0.000000 0.000000 0.000000
					}
				}
			}
		}
	}
	JOINT RightUpLeg
	{
		OFFSET -6.767048 -9.052170 -0.431982
		CHANNELS 3 Zrotation Yrotation Xrotation
		JOINT RightLeg
		{
			OFFSET -3.829005 -38.256897 -0.885003
			CHANNELS 3 Zrotation Yrotation Xrotation
			JOINT RightFoot
			{
				OFFSET 1.577377 -39.841461 -4.231180
				CHANNELS 3 Zrotation Yrotation Xrotation
				JOINT RightToe
				{
					OFFSET -2.537174 -4.814398 12.334795
					CHANNELS 3 Zrotation Yrotation Xrotation
					End Site
					{
						OFFSET 0.000000 0.000000 0.000000
					}
				}
			}
		}
	}
	JOINT Spine
	{
		OFFSET -0.253288 10.896323 -2.669631
		CHANNELS 3 Zrotation Yrotation Xrotation
		JOINT Spine1
		{
			OFFSET 0.548704 13.518043 0.109247
			CHANNELS 3 Zrotation Yrotation Xrotation
			JOINT Spine2
			{
				OFFSET 0.145701 5.292222 2.542457
				CHANNELS 3 Zrotation Yrotation Xrotation
				JOINT Neck
				{
					OFFSET -0.277840 21.387037 -4.285703
					CHANNELS 3 Zrotation Yrotation Xrotation
					JOINT Head
					{
						OFFSET 0.515184 6.496960 5.134897
						CHANNELS 3 Zrotation Yrotation Xrotation
						End Site
						{
							OFFSET 0.000000 0.000000 0.000000
						}
					}
				}
				JOINT LeftShoulder
				{
					OFFSET 7.884473 12.174932 -3.408961
					CHANNELS 3 Zrotation Yrotation Xrotation
					JOINT LeftArm
					{
						OFFSET 9.097692 3.046888 -0.886815
						CHANNELS 3 Zrotation Yrotation Xrotation
						JOINT LeftForeArm
						{
							OFFSET 25.961220 -1.277207 -2.745643
							CHANNELS 3 Zrotation Yrotation Xrotation
							JOINT LeftHand
							{
								OFFSET 24.923361 0.898606 -0.117091
								CHANNELS 3 Zrotation Yrotation Xrotation
								End Site
								{
									OFFSET 0.000000 0.000000 0.000000
								}
							}
						}
					}
				}
				JOINT RightShoulder
				{
					OFFSET -8.175920 11.883285 -3.861528
					CHANNELS 3 Zrotation Yrotation Xrotation
					JOINT RightArm
					{
						OFFSET -9.601238 3.255117 -0.914307
						CHANNELS 3 Zrotation Yrotation Xrotation
						JOINT RightForeArm
						{
							OFFSET -25.374195 -1.332924 -2.140099
							CHANNELS 3 Zrotation Yrotation Xrotation
							JOINT RightHand
							{
								OFFSET -25.529810 0.777228 -0.555919
								CHANNELS 3 Zrotation Yrotation Xrotation
								End Site
								{
									OFFSET 0.000000 0.000000 0.000000
								}
							}
						}
					}
				}
			}
		}
	}
}
MOTION
Frames: 9
Frame Time: 0.033333
10.686712 61.035728 90.889442 -106.351967 1.229243 83.580336 1.068598 -2.662735 -6.494674 -0.695782 4.178852 40.838648 2.807453 8.777791 -37.603067 nan nan nan -9.377797 -4.676321 -22.783488 -0.817493 -5.245016 27.918686 6.817834 2.918078 -7.529917 nan nan nan -3.335524 4.599487 8.517744 4.761253 -2.451419 6.352731 0.619867 1.772920 -1.364186 3.107841 -10.987168 4.876397 4.106037 -24.056218 14.090154 -9.139239 -20.756561 -1.445946 -77.132535 -38.099765 35.984280 150.474770 -80.790979 -122.262079 12.862007 -30.692438 -30.852848 15.295550 15.526228 0.703655 44.060463 21.130346 -1.894573 -70.393918 43.748392 -54.825674 4.339128 20.062359 -17.383723 
10.647942 61.039215 90.669052 -106.783163 1.281632 83.736165 0.655890 -3.211193 -7.068750 -0.466766 4.035725 41.755258 3.386394 9.829446 -37.798692 nan nan nan -9.334188 -4.044486 -23.491547 -0.585915 -4.840514 28.706246 6.688867 2.219757 -8.053399 nan nan nan -2.950750 4.463899 8.602527 4.654670 -2.072174 5.877583 0.481509 1.728774 -0.824374 3.066857 -10.992356 4.168289 3.728921 -23.854634 14.541371 -9.202799 -20.586379 -1.494679 -76.900893 -38.008636 35.917330 150.124039 -80.893911 -121.835038 13.051365 -30.423751 -31.229744 15.143481 15.571752 0.740867 44.132092 21.351595 -1.586376 -70.517013 43.578766 -54.865743 3.745369 20.082048 -17.547142 
10.586489 61.056141 90.432022 -107.225147 1.304086 83.858675 0.169144 -3.848654 -7.568915 -0.057839 3.966456 42.682039 3.718388 10.747665 -37.757576 nan nan nan -9.274048 -3.580348 -24.248121 -0.529417 -4.612042 29.658707 6.536414 1.901446 -8.568462 nan nan nan -2.696886 4.418012 8.816078 4.601681 -1.753668 5.463755 0.404264 1.734361 -0.590104 3.024092 -10.959188 3.675782 3.436383 -23.719158 14.816098 -9.146634 -20.404273 -1.559182 -76.872997 -37.766903 35.964947 149.764159 -81.025099 -121.418117 13.308661 -30.227433 -31.187083 14.967190 15.544921 0.651507 44.317794 21.491993 -1.320096 -70.565206 43.502687 -54.827118 3.360371 20.220961 -17.550868 
10.500766 61.065380 90.191978 -107.676654 1.271938 83.992071 -0.374457 -4.629416 -8.002511 0.449980 4.081984 43.580428 3.687883 11.676456 -37.750290 nan nan nan -9.298721 -3.118504 -24.976094 -0.495003 -4.461373 30.613395 6.533830 1.638214 -9.002833 nan nan nan -2.488110 4.355322 8.775330 4.538662 -1.471935 5.357752 0.278370 1.814450 -0.437393 2.926959 -10.926755 3.359314 3.245536 -23.598972 14.987271 -9.100088 -20.216586 -1.655294 -76.896606 -37.505781 36.103370 148.912314 -81.178173 -120.619697 13.594232 -30.182097 -30.789261 14.857093 15.465221 0.522405 44.464826 21.705814 -1.069900 -70.445889 43.399740 -54.686262 3.354196 20.246823 -17.235753 
10.418464 61.102211 89.957214 -108.255894 1.205042 84.182200 -0.854958 -5.267450 -8.477861 0.960906 4.333095 44.496089 3.688735 12.472319 -37.993637 nan nan nan -9.279511 -2.574105 -25.818314 -0.524773 -4.270487 31.590065 6.314705 1.498233 -9.423526 nan nan nan -2.155502 3.690514 9.078669 4.196907 -1.502777 4.559638 -0.128635 2.574789 -0.162995 2.785387 -10.599211 3.392791 3.332199 -23.395863 15.063377 -8.910557 -19.516956 -1.927862 -76.854209 -36.888750 36.019093 150.393877 -81.324622 -122.001461 13.716490 -30.252085 -30.904304 15.107664 15.672339 0.875814 44.749778 22.081823 -0.851662 -70.463638 43.227501 -54.391021 3.313949 20.189474 -16.765268 
10.352754 61.134079 89.693634 -108.806754 1.251597 84.220398 -1.145688 -5.879570 -8.846287 1.417632 4.611779 45.486124 3.755626 13.158897 -38.270467 nan nan nan -9.170572 -2.019648 -26.472604 -0.466210 -4.034801 32.501033 6.083093 1.218481 -9.890464 nan nan nan -2.071979 4.182696 9.036116 4.405790 -0.983364 4.786040 -0.018317 2.108408 -0.157269 2.837906 -10.555654 2.767287 2.876101 -23.448846 15.186841 -9.071293 -19.529569 -1.914885 -76.898490 -36.738681 36.204431 148.984772 -81.510017 -120.836839 14.027503 -30.455557 -30.868769 14.883693 15.587244 0.452808 44.673717 22.029128 -0.382173 -70.411583 43.062464 -54.429250 2.851009 20.270651 -16.679667 
10.247853 61.173141 89.402267 -109.387288 1.230019 84.235188 -1.519608 -6.342421 -9.092938 1.792450 4.673245 46.352116 3.797598 13.827449 -38.490192 nan nan nan -9.116968 -1.583973 -27.165563 -0.479032 -3.806466 33.554643 5.989114 1.070039 -10.377513 nan nan nan -2.013930 4.671718 8.884048 4.580283 -0.468713 5.166633 0.070934 1.633574 -0.236765 2.888879 -10.488800 2.250333 2.334174 -23.495329 15.396087 -9.327924 -19.599647 -1.798488 -76.691328 -36.586136 36.254810 147.589385 -81.680588 -119.703267 14.501222 -30.417105 -31.033675 14.731147 15.542314 0.141724 44.551718 22.048822 0.026635 -70.229659 42.959208 -54.435423 1.837509 20.495624 -16.888346 
10.103933 61.228863 89.141472 -110.028123 1.095609 84.342995 -2.021140 -6.679143 -9.305392 2.074237 4.533982 47.029098 4.020108 14.492906 -38.690676 nan nan nan -9.119960 -1.190406 -28.011681 -0.578914 -3.554950 34.715727 5.863592 1.061822 -10.856632 nan nan nan -1.836320 4.388546 9.176419 4.326412 -0.279191 4.327830 -0.172803 2.022534 0.016278 2.774743 -10.281493 2.445858 2.243871 -23.298530 15.538644 -9.548275 -19.283176 -1.636219 -76.093446 -36.022529 35.927848 148.947904 -81.765502 -121.056307 14.532825 -30.274519 -31.108357 15.055484 15.721093 0.510570 44.690013 22.267702 0.185841 -70.076258 42.943308 -54.243400 0.692319 20.590665 -16.903103 
9.980950 61.282024 88.853424 -110.669794 1.024324 84.326971 -2.412588 -7.021061 -9.418853 2.301579 4.351738 47.737646 4.352374 14.949852 -38.860606 nan nan nan -9.064931 -0.742977 -28.745487 -0.640510 -3.297662 35.886433 5.653437 1.033867 -11.372710 nan nan nan -1.675301 4.262033 9.604335 4.133974 -0.017426 4.009702 -0.361769 2.283915 -0.166449 2.872340 -10.014267 2.184218 1.991000 -23.212339 15.864428 -9.588845 -18.902998 -1.622159 -75.873518 -35.525382 35.818336 150.085299 -81.892900 -121.952796 14.505949 -30.120865 -31.179238 15.211019 15.686013 0.595509 44.903999 22.477507 0.522335 -69.733587 42.981861 -53.826203 -0.501972 20.769722 -17.082927 
